# xmcd CD database file
#
# Track frame offsets:
#	150
#	35970
#	45113
#	50505
#	63810
#	94449
#	100843
#	121614
#	134157
#	165640
#	181392
#
# Disc length: 2736 seconds
#
# Revision: 0
# Processed by: cddbd v1.5.2PL0 Copyright (c) Steve Scherf et al.
# Submitted via: CDex 1.50
#
DISCID=940aae0b
DTITLE=Sclavis, Pifarély and Courtois  - Asian Fields Variations
DYEAR=2017
DGENRE=Jazz
TTITLE0=Mont Myon
TTITLE1=Done And Done
TTITLE2=Pensée Furtive
TTITLE3=Figure Absente
TTITLE4=Asian Fields
TTITLE5=Digression
TTITLE6=Fifteen Weeks
TTITLE7=Les Nuits
TTITLE8=Cèdre
TTITLE9=Sous Le Masque
TTITLE10=La Carrière
EXTD=YEAR: 2017
EXTT0=
EXTT1=
EXTT2=
EXTT3=
EXTT4=
EXTT5=
EXTT6=
EXTT7=
EXTT8=
EXTT9=
EXTT10=
PLAYORDER=
